<svg width="169" height="191" viewBox="0 0 169 191" fill="none" xmlns="http://www.w3.org/2000/svg">
<path d="M98.8741 0H100.993C101.553 2.35458 101.907 5.23946 102.327 7.68915L104.929 22.9331C105.427 25.9048 106.084 30.4424 106.893 32.5392C109.003 38.0144 112.597 38.9692 106.414 42.091C104.924 42.8434 104.804 53.1551 104.81 55.8465C105.541 57.1003 106.203 57.8191 107.519 58.4728C110.146 59.7767 113.231 60.549 115.989 61.5734C124.349 64.6786 133.418 68.5452 139.301 75.4711C142.568 79.3162 145.506 84.7666 147.588 89.3298C152.439 99.9627 152.902 110.149 151.663 121.568C151.167 126.142 150.43 130.768 150.064 135.403C149.784 138.952 150.838 142.176 150.866 145.768C150.895 149.317 150.133 152.908 149.969 156.544C149.808 160.083 149.267 166.155 150.624 169.383C151.244 170.858 154.644 171.192 156.176 171.635C157.25 171.95 158.292 172.363 159.291 172.869C161.843 174.172 165.288 176.915 167.11 179.002C172.207 185.095 164.159 191.326 158.122 190.501C151.317 189.572 148.428 185.533 145.148 180.016C143.231 176.793 143.299 174.265 143.707 170.654C138.432 163.531 145.023 149.317 141.662 141.396C136.778 129.888 117.901 135.584 109.819 139.77C107.351 141.048 104.996 143.041 102.623 144.513C92.6089 151.675 82.3703 157.534 71.0122 162.342C53.8887 169.591 34.8942 169.022 18.0282 161.326C13.4111 159.262 8.69314 157.011 4.22385 154.671C2.29034 153.659 -2.20309 150.413 1.29179 148.588C2.64773 147.757 4.4105 147.336 5.74853 146.511C10.8659 143.357 16.3679 137.917 19.3038 132.696C22.2661 127.428 17.7932 126.587 14.6234 124.134C10.9079 121.26 10.0294 114.921 12.4033 110.929C15.0312 106.149 19.2052 105.065 23.9605 103.549C24.1678 101.281 24.2245 99.0529 24.4628 96.7601C25.1441 90.2015 28.6537 84.0134 32.8637 78.8854C41.8262 67.9684 53.8817 59.6998 67.9255 57.0328C73.523 55.9698 77.5459 56.1917 82.7836 55.5538C82.9962 55.3431 83.2055 55.1292 83.4113 54.9121C83.8027 54.4976 84.4786 53.6753 84.596 53.0903C85.3083 49.5422 85.5857 45.175 85.7593 41.5753C85.8705 39.2702 83.976 38.3516 82.3375 36.8063C83.3853 33.9258 87.6241 30.3042 88.9498 27.0302C89.7699 25.0044 90.4548 23.0531 91.2185 21.0165C92.6681 17.2198 94.079 13.4086 95.451 9.58337C96.5274 6.52195 97.6456 2.95825 98.8741 0Z" fill="#FEFEFE"/>
<path d="M75.7092 116.88C86.6467 116.621 96.9727 116.056 107.584 113.216C110.317 112.457 114.264 111.766 116.207 109.545C119.029 106.319 121.384 103.865 125.996 103.755C133.446 103.578 138.602 109.836 138.763 116.901C138.872 120.539 137.528 124.07 135.027 126.715C130.819 131.076 125.64 131.406 120.383 128.719C118.49 129.45 115.774 130.191 113.79 130.788C90.9822 137.525 66.9503 139.04 43.4771 135.22C39.0215 134.461 27.9328 132.301 24.3605 129.739L24.3846 129.551C25.5437 129.743 26.9469 130.255 28.0704 130.641C31.912 131.96 35.8375 132.909 39.8423 133.582C66.4593 138.05 93.7551 136.168 119.507 128.09C116.45 125.286 114.775 122.349 114.59 118.112C114.513 116.305 114.724 114.497 115.218 112.758C103.291 115.949 93.527 117.576 81.0333 117.795C77.5555 117.856 73.0347 117.331 70.0639 117.437C68.3441 117.486 66.0451 117.233 64.1113 117.246L63.6627 116.833C67.1345 116.85 72.4061 116.692 75.7092 116.88Z" fill="black"/>
<path d="M63.6627 116.833C67.1345 116.85 72.4061 116.692 75.7092 116.88C74.5653 117.052 69.8182 116.983 69.3522 117.189L70.0639 117.437C68.3441 117.486 66.0451 117.233 64.1113 117.246L63.6627 116.833Z" fill="#545158"/>
<path d="M125.886 105.235C128.147 105.009 130.619 105.882 132.427 107.229C135 109.181 136.692 112.076 137.129 115.276C138.06 121.877 134.128 127.968 127.324 128.865C121.219 129.492 116.736 124.413 115.985 118.756C115.547 115.36 116.469 111.929 118.552 109.211C120.535 106.653 122.785 105.632 125.886 105.235Z" fill="#FEFEFE"/>
<path d="M126.336 108.23C129.989 108.021 131.181 108.878 133.424 111.643C132.04 110.746 131.117 109.593 129.451 109.289C122.34 107.99 118.702 116.907 122.562 122.168C123.975 124.093 125.578 124.769 127.787 125.141C129.872 124.99 131.485 124.089 132.319 124.063C131.977 124.665 129.124 125.851 128.389 125.921C117.491 126.958 115.401 110.508 126.336 108.23Z" fill="black"/>
<path d="M124.494 72.7178C127.772 73.3707 134.979 78.6128 137.245 81.3768C142.161 87.373 142.956 95.6884 142.326 103.121C142.271 103.071 138.171 93.5956 137.562 92.2512C134.088 84.5789 129.191 79.339 124.494 72.7178Z" fill="black"/>
<path d="M68.9408 60.5556C69.183 60.4934 69.2827 60.557 69.5264 60.6322C69.2667 60.9056 62.484 63.4635 61.4547 63.9175C54.8859 66.8157 49.0198 70.8743 43.3404 75.2151C43.2596 75.2866 43.0211 75.3782 42.9084 75.4281L42.8606 75.2244C43.4245 73.9164 45.6736 71.7182 46.7006 70.5042C52.8649 63.2162 60.0202 62.0431 68.9408 60.5556Z" fill="black"/>
<path d="M17.6914 142.719L17.9268 142.725L18.0772 142.931C16.3325 147.368 10.9639 152.421 5.85735 150.557C5.27825 150.359 5.06661 150.276 4.51304 149.983L4.57054 149.672C9.10159 144.874 11.7542 144.261 17.6914 142.719Z" fill="black"/>
<path d="M100.163 17.6653C101.628 18.7516 103.471 30.3871 103.739 32.8025C103.293 32.7437 102.347 32.5529 102.176 32.2101C100.947 29.755 100.078 20.0128 100.163 17.6653Z" fill="black"/>
<path d="M101.158 42.0851C101.49 42.2557 101.705 42.2698 101.762 42.5772C102.047 44.0964 101.281 50.9933 100.65 52.1356C100.562 51.9786 100.485 51.8156 100.42 51.6482C99.2522 48.6841 99.9486 44.933 101.158 42.0851Z" fill="black"/>
<path d="M22.8634 106.773C23.1123 106.794 22.9917 106.773 23.2367 106.981C22.7951 107.541 19.6118 108.352 18.3663 109.501C17.1659 110.609 17.095 110.7 16.0777 112.065C15.9459 112.038 15.8912 111.964 15.7659 111.866C17.1812 108.007 19.0626 107.279 22.8634 106.773Z" fill="black"/>
<path d="M64.1113 117.246C63.3534 117.197 62.6257 117.161 61.876 117.025L61.7378 117L61.793 117.028L61.4905 116.642L61.6093 116.626L61.5612 116.932L61.8354 116.615C62.5663 116.659 62.9461 116.694 63.6627 116.833L64.1113 117.246Z" fill="#9997A2"/>
<path d="M127.176 136.729C129.223 136.416 133.636 136.673 135.489 137.634C145.72 142.941 136.783 160.128 140.228 169.63C133.561 169.77 129.603 171.096 123.266 172.402C118.246 173.437 112.917 173.065 107.906 172.086C105.255 171.336 102.903 170.572 100.504 169.168C94.8794 165.875 95.0803 158.74 92.781 153.34C103.258 145.631 113.598 137.841 127.176 136.729Z" fill="#FEFEFE"/>
</svg>
